STARTFONT 2.1
FONT -Adobe-ITC Souvenir-Demi-R-Normal--18-180-75-75-P-112-ISO8859-15
SIZE 18 75 75
FONTBOUNDINGBOX 21 23 -1 -5

STARTPROPERTIES 30
FOUNDRY "Adobe"
FAMILY_NAME "ITC Souvenir"
WEIGHT_NAME "Demi"
SLANT "R"
SETWIDTH_NAME "Normal"
ADD_STYLE_NAME ""
PIXEL_SIZE 18
POINT_SIZE 180
RESOLUTION_X 75
RESOLUTION_Y 75
SPACING "P"
AVERAGE_WIDTH 112
CHARSET_REGISTRY "ISO8859"
CHARSET_ENCODING "15"
CAP_HEIGHT 14
X_HEIGHT 9
FACE_NAME "ITC Souvenir Demi"
COPYRIGHT "Copyright (c) 1984, 1987 Adobe Systems Incorporated. All Rights Reserved. Copyright (c) 1988, 1991 Digital Equipment Corporation. All Rights Reserved."
NOTICE "ITC Souvenir is a registered trademark of International Typeface Corporation.  "
_DEC_DEVICE_FONTNAMES "PS=Souvenir-Demi"
_DEC_PRODUCTINFO "DECwindows Fonts V2.2, 07-Nov-1991"
RELATIVE_SETWIDTH 50
RELATIVE_WEIGHT 60
CHARSET_COLLECTIONS "ASCII ISO8859-1 ADOBE-STANDARD"
FULL_NAME "ITC Souvenir Demi"
WEIGHT 10
QUAD_WIDTH 14
DEFAULT_CHAR 32
FONT_DESCENT 4
FONT_ASCENT 17
ENDPROPERTIES

CHARS 191

STARTCHAR space
ENCODING 32
SWIDTH 340 0
DWIDTH 6 0
BBX 1 1 0 0
BITMAP
00
ENDCHAR

STARTCHAR exclam
ENCODING 33
SWIDTH 360 0
DWIDTH 7 0
BBX 4 14 1 0
BITMAP
70
70
70
70
70
70
70
70
70
20
00
60
F0
60
ENDCHAR

STARTCHAR quotedbl
ENCODING 34
SWIDTH 580 0
DWIDTH 11 0
BBX 8 7 1 7
BITMAP
E7
E7
E7
E7
E7
42
42
ENDCHAR

STARTCHAR numbersign
ENCODING 35
SWIDTH 680 0
DWIDTH 13 0
BBX 10 11 1 1
BITMAP
1980
1980
7FC0
7FC0
3300
3300
FF80
FF80
6600
6600
6600
ENDCHAR

STARTCHAR dollar
ENCODING 36
SWIDTH 680 0
DWIDTH 13 0
BBX 10 18 1 -3
BITMAP
0C00
0C00
3F00
7380
E180
E000
F800
FE00
7F80
0FC0
03C0
C1C0
C1C0
E380
7F00
0C00
0C00
0C00
ENDCHAR

STARTCHAR percent
ENCODING 37
SWIDTH 940 0
DWIDTH 18 0
BBX 17 14 0 0
BITMAP
3C0C00
7E1800
663800
E77000
E76000
66E000
7EDE00
3DBF00
03B300
037380
067380
0E3300
0C3F00
181E00
ENDCHAR

STARTCHAR ampersand
ENCODING 38
SWIDTH 840 0
DWIDTH 16 0
BBX 14 15 1 0
BITMAP
0F00
3F80
71C0
71C0
71C0
7B80
3F00
3E7C
7F38
F7B0
E3F0
E1E0
F1F0
7FFC
3E38
ENDCHAR

STARTCHAR quoteright
ENCODING 39
SWIDTH 320 0
DWIDTH 6 0
BBX 4 5 1 9
BITMAP
60
F0
30
60
40
ENDCHAR

STARTCHAR parenleft
ENCODING 40
SWIDTH 340 0
DWIDTH 6 0
BBX 5 18 0 -4
BITMAP
18
38
38
70
70
F0
E0
E0
E0
E0
E0
E0
F0
70
70
38
38
18
ENDCHAR

STARTCHAR parenright
ENCODING 41
SWIDTH 340 0
DWIDTH 6 0
BBX 5 18 0 -4
BITMAP
C0
E0
E0
70
70
78
38
38
38
38
38
38
78
70
70
E0
E0
C0
ENDCHAR

STARTCHAR asterisk
ENCODING 42
SWIDTH 400 0
DWIDTH 8 0
BBX 5 7 1 7
BITMAP
20
A8
F8
70
F8
A8
20
ENDCHAR

STARTCHAR plus
ENCODING 43
SWIDTH 660 0
DWIDTH 12 0
BBX 10 10 1 0
BITMAP
0C00
0C00
0C00
0C00
FFC0
FFC0
0C00
0C00
0C00
0C00
ENDCHAR

STARTCHAR comma
ENCODING 44
SWIDTH 340 0
DWIDTH 6 0
BBX 4 5 1 -3
BITMAP
60
F0
30
60
40
ENDCHAR

STARTCHAR minus
ENCODING 45
SWIDTH 660 0
DWIDTH 12 0
BBX 9 2 1 4
BITMAP
FF80
FF80
ENDCHAR

STARTCHAR period
ENCODING 46
SWIDTH 340 0
DWIDTH 6 0
BBX 4 3 1 0
BITMAP
60
F0
60
ENDCHAR

STARTCHAR slash
ENCODING 47
SWIDTH 460 0
DWIDTH 9 0
BBX 9 16 -1 -2
BITMAP
0180
0100
0300
0200
0600
0400
0C00
0800
1800
1000
3000
2000
6000
4000
C000
8000
ENDCHAR

STARTCHAR zero
ENCODING 48
SWIDTH 680 0
DWIDTH 13 0
BBX 11 14 1 0
BITMAP
1F00
3F80
71C0
60C0
E0E0
E0E0
E0E0
E0E0
E0E0
E0E0
60C0
71C0
3F80
1F00
ENDCHAR

STARTCHAR one
ENCODING 49
SWIDTH 680 0
DWIDTH 13 0
BBX 7 14 3 0
BITMAP
38
78
F8
38
38
38
38
38
38
38
38
38
38
FE
ENDCHAR

STARTCHAR two
ENCODING 50
SWIDTH 680 0
DWIDTH 13 0
BBX 10 14 1 0
BITMAP
3F00
7380
E1C0
E1C0
61C0
0380
0780
0F00
1E00
3C00
7840
F0C0
FFC0
FFC0
ENDCHAR

STARTCHAR three
ENCODING 51
SWIDTH 680 0
DWIDTH 13 0
BBX 10 14 1 0
BITMAP
3F00
7380
E1C0
61C0
01C0
0380
1F00
1F80
01C0
01C0
E1C0
E1C0
7780
3F00
ENDCHAR

STARTCHAR four
ENCODING 52
SWIDTH 680 0
DWIDTH 13 0
BBX 11 14 1 0
BITMAP
0380
0780
0F80
1B80
1B80
3380
3380
6380
6380
FFE0
FFE0
0380
0380
07C0
ENDCHAR

STARTCHAR five
ENCODING 53
SWIDTH 680 0
DWIDTH 13 0
BBX 11 14 1 0
BITMAP
7FC0
7F80
7E00
6000
6000
7F00
7FC0
61E0
00E0
00E0
60E0
E1C0
FFC0
3F00
ENDCHAR

STARTCHAR six
ENCODING 54
SWIDTH 680 0
DWIDTH 13 0
BBX 11 14 1 0
BITMAP
03C0
0F00
1C00
3800
7000
7780
FFC0
F1E0
E0E0
E0E0
E0E0
71C0
7FC0
1F00
ENDCHAR

STARTCHAR seven
ENCODING 55
SWIDTH 680 0
DWIDTH 13 0
BBX 10 14 1 0
BITMAP
FFC0
FFC0
C180
8380
0300
0700
0700
0E00
0E00
1E00
1C00
1C00
3C00
3C00
ENDCHAR

STARTCHAR eight
ENCODING 56
SWIDTH 680 0
DWIDTH 13 0
BBX 11 14 1 0
BITMAP
1F80
39C0
70C0
70C0
7980
3F00
1F80
77C0
E1E0
E0E0
E0E0
F1C0
7F80
1E00
ENDCHAR

STARTCHAR nine
ENCODING 57
SWIDTH 680 0
DWIDTH 13 0
BBX 11 14 1 0
BITMAP
1F00
7FC0
71C0
E0E0
E0E0
E0E0
F1E0
7FE0
3DC0
01C0
0380
0700
1E00
7800
ENDCHAR

STARTCHAR colon
ENCODING 58
SWIDTH 340 0
DWIDTH 6 0
BBX 4 9 1 0
BITMAP
60
F0
60
00
00
00
60
F0
60
ENDCHAR

STARTCHAR semicolon
ENCODING 59
SWIDTH 340 0
DWIDTH 6 0
BBX 4 12 1 -3
BITMAP
60
F0
60
00
00
00
00
60
F0
30
60
40
ENDCHAR

STARTCHAR less
ENCODING 60
SWIDTH 660 0
DWIDTH 12 0
BBX 10 11 1 0
BITMAP
0040
01C0
0780
1E00
3800
E000
7800
1E00
0780
01C0
0040
ENDCHAR

STARTCHAR equal
ENCODING 61
SWIDTH 660 0
DWIDTH 12 0
BBX 9 5 1 3
BITMAP
FF80
FF80
0000
FF80
FF80
ENDCHAR

STARTCHAR greater
ENCODING 62
SWIDTH 660 0
DWIDTH 12 0
BBX 10 11 1 0
BITMAP
8000
E000
7800
1E00
0780
01C0
0700
1E00
7800
E000
8000
ENDCHAR

STARTCHAR question
ENCODING 63
SWIDTH 540 0
DWIDTH 10 0
BBX 9 14 0 0
BITMAP
7E00
FF00
E380
6380
0380
0700
0E00
1C00
1800
1800
0000
1800
3C00
1800
ENDCHAR

STARTCHAR at
ENCODING 64
SWIDTH 860 0
DWIDTH 16 0
BBX 14 14 1 0
BITMAP
07E0
1FF0
3818
73A8
67EC
C66C
CCCC
CCCC
CD98
6FF0
7768
3818
1FF0
07E0
ENDCHAR

STARTCHAR A
ENCODING 65
SWIDTH 740 0
DWIDTH 14 0
BBX 13 14 0 0
BITMAP
0700
0700
0F80
0F80
1DC0
19C0
19C0
30E0
3FE0
3FF0
7070
6070
E078
F0F8
ENDCHAR

STARTCHAR B
ENCODING 66
SWIDTH 740 0
DWIDTH 14 0
BBX 13 14 0 0
BITMAP
FFC0
7FE0
7070
7070
70F0
71E0
77C0
7FF0
7878
7038
7038
7078
7FF0
FFE0
ENDCHAR

STARTCHAR C
ENCODING 67
SWIDTH 760 0
DWIDTH 14 0
BBX 13 14 0 0
BITMAP
0FE0
3FF0
3C30
7010
7000
E000
E000
E000
E000
7000
7008
3C38
3FF0
0FC0
ENDCHAR

STARTCHAR D
ENCODING 68
SWIDTH 820 0
DWIDTH 15 0
BBX 14 14 0 0
BITMAP
FFC0
7FF0
7078
7038
703C
701C
701C
701C
701C
703C
7038
7078
7FF0
FFC0
ENDCHAR

STARTCHAR E
ENCODING 69
SWIDTH 660 0
DWIDTH 12 0
BBX 11 14 0 0
BITMAP
FFE0
7FE0
7020
7000
7000
7040
7FC0
7FC0
7040
7000
7000
7020
7FE0
FFC0
ENDCHAR

STARTCHAR F
ENCODING 70
SWIDTH 620 0
DWIDTH 12 0
BBX 11 14 0 0
BITMAP
FFE0
7FE0
7020
7000
7000
7080
7F80
7F80
7080
7000
7000
7000
7000
F800
ENDCHAR

STARTCHAR G
ENCODING 71
SWIDTH 780 0
DWIDTH 14 0
BBX 13 14 0 0
BITMAP
0FE0
3FF0
3C30
7010
7000
E000
E000
E0F8
E038
7038
7038
3C38
3FF8
0FE0
ENDCHAR

STARTCHAR H
ENCODING 72
SWIDTH 820 0
DWIDTH 15 0
BBX 14 14 0 0
BITMAP
F87C
7038
7038
7038
7038
7038
7FF8
7FF8
7038
7038
7038
7038
7038
F87C
ENDCHAR

STARTCHAR I
ENCODING 73
SWIDTH 340 0
DWIDTH 6 0
BBX 5 14 0 0
BITMAP
F8
70
70
70
70
70
70
70
70
70
70
70
70
F8
ENDCHAR

STARTCHAR J
ENCODING 74
SWIDTH 560 0
DWIDTH 10 0
BBX 10 14 -1 0
BITMAP
07C0
0380
0380
0380
0380
0380
0380
0380
0380
7380
F380
E380
F700
7E00
ENDCHAR

STARTCHAR K
ENCODING 75
SWIDTH 780 0
DWIDTH 15 0
BBX 14 14 0 0
BITMAP
F878
7070
70E0
71C0
7380
7700
7F00
7F80
73C0
71E0
70F0
7078
703C
F83C
ENDCHAR

STARTCHAR L
ENCODING 76
SWIDTH 600 0
DWIDTH 11 0
BBX 11 14 0 0
BITMAP
F800
7000
7000
7000
7000
7000
7000
7000
7000
7000
7000
7020
7FE0
FFC0
ENDCHAR

STARTCHAR M
ENCODING 77
SWIDTH 920 0
DWIDTH 17 0
BBX 16 14 0 0
BITMAP
F00F
781E
7C1E
7C3E
7E3E
6E6E
6F6E
67CE
67CE
638E
638E
610E
600E
F01F
ENDCHAR

STARTCHAR N
ENCODING 78
SWIDTH 760 0
DWIDTH 14 0
BBX 13 14 0 0
BITMAP
F078
7830
7C30
7C30
7E30
6F30
6730
63B0
63F0
61F0
60F0
60F0
6070
F070
ENDCHAR

STARTCHAR O
ENCODING 79
SWIDTH 860 0
DWIDTH 16 0
BBX 15 14 0 0
BITMAP
0FE0
3FF8
3C78
701C
701C
E00E
E00E
E00E
E00E
701C
701C
3C78
3FF8
0FE0
ENDCHAR

STARTCHAR P
ENCODING 80
SWIDTH 680 0
DWIDTH 13 0
BBX 12 14 0 0
BITMAP
FFC0
7FE0
7070
7070
70F0
71E0
7FC0
7F00
7000
7000
7000
7000
7000
F800
ENDCHAR

STARTCHAR Q
ENCODING 81
SWIDTH 860 0
DWIDTH 16 0
BBX 15 17 0 -3
BITMAP
0FE0
3FF8
3C78
701C
701C
E00E
E00E
E00E
E00E
701C
711C
3DB8
3FF8
0FE0
00C0
007C
0038
ENDCHAR

STARTCHAR R
ENCODING 82
SWIDTH 740 0
DWIDTH 14 0
BBX 13 14 0 0
BITMAP
FFC0
7FE0
7070
7070
70F0
71E0
7FC0
7F80
73C0
71C0
70E0
70F0
7070
F8F8
ENDCHAR

STARTCHAR S
ENCODING 83
SWIDTH 680 0
DWIDTH 13 0
BBX 11 14 1 0
BITMAP
1F80
7FC0
F0C0
E040
E000
F800
7F00
3FC0
07E0
00E0
C0E0
E1E0
FFC0
3F80
ENDCHAR

STARTCHAR T
ENCODING 84
SWIDTH 680 0
DWIDTH 12 0
BBX 11 14 0 0
BITMAP
FFE0
FFE0
8E20
0E00
0E00
0E00
0E00
0E00
0E00
0E00
0E00
0E00
0E00
1F00
ENDCHAR

STARTCHAR U
ENCODING 85
SWIDTH 760 0
DWIDTH 14 0
BBX 13 14 0 0
BITMAP
F878
7030
7030
7030
7030
7030
7030
7030
7030
7030
7030
3860
3FE0
1FC0
ENDCHAR

STARTCHAR V
ENCODING 86
SWIDTH 740 0
DWIDTH 14 0
BBX 13 14 0 0
BITMAP
F878
7030
7030
7030
7870
3860
3860
3CE0
1CC0
1CC0
1D80
0F80
0F80
0700
ENDCHAR

STARTCHAR W
ENCODING 87
SWIDTH 1000 0
DWIDTH 18 0
BBX 17 14 0 0
BITMAP
FBE780
71C300
71C300
71C300
71E300
71E300
3BE600
3BF600
3BF600
3B7600
1E7C00
1E3C00
1E3C00
0C1800
ENDCHAR

STARTCHAR X
ENCODING 88
SWIDTH 740 0
DWIDTH 14 0
BBX 13 14 0 0
BITMAP
F078
7030
7860
38C0
1CC0
1F80
0F00
0F00
1F80
1BC0
31E0
60F0
6070
F0F8
ENDCHAR

STARTCHAR Y
ENCODING 89
SWIDTH 740 0
DWIDTH 14 0
BBX 13 14 0 0
BITMAP
FC78
7830
3860
3C60
1CC0
1E80
0F80
0700
0700
0700
0700
0700
0700
0F80
ENDCHAR

STARTCHAR Z
ENCODING 90
SWIDTH 620 0
DWIDTH 11 0
BBX 10 14 0 0
BITMAP
FFC0
FFC0
8380
0780
0700
0F00
1E00
1C00
3C00
7800
7000
F040
FFC0
FFC0
ENDCHAR

STARTCHAR bracketleft
ENCODING 91
SWIDTH 320 0
DWIDTH 6 0
BBX 4 18 1 -4
BITMAP
F0
F0
E0
E0
E0
E0
E0
E0
E0
E0
E0
E0
E0
E0
E0
E0
F0
F0
ENDCHAR

STARTCHAR backslash
ENCODING 92
SWIDTH 640 0
DWIDTH 12 0
BBX 7 14 2 0
BITMAP
C0
40
60
20
20
30
10
18
08
08
0C
04
06
02
ENDCHAR

STARTCHAR bracketright
ENCODING 93
SWIDTH 320 0
DWIDTH 6 0
BBX 4 18 0 -4
BITMAP
F0
F0
70
70
70
70
70
70
70
70
70
70
70
70
70
70
F0
F0
ENDCHAR

STARTCHAR asciicircum
ENCODING 94
SWIDTH 660 0
DWIDTH 12 0
BBX 9 10 1 4
BITMAP
1C00
1C00
3E00
3600
7700
6300
6300
C180
C180
C180
ENDCHAR

STARTCHAR underscore
ENCODING 95
SWIDTH 500 0
DWIDTH 9 0
BBX 9 2 0 -3
BITMAP
FF80
FF80
ENDCHAR

STARTCHAR quoteleft
ENCODING 96
SWIDTH 320 0
DWIDTH 6 0
BBX 4 5 1 9
BITMAP
20
60
C0
F0
60
ENDCHAR

STARTCHAR a
ENCODING 97
SWIDTH 580 0
DWIDTH 11 0
BBX 10 9 0 0
BITMAP
7F00
E780
C380
1F80
7380
E380
E380
FF80
73C0
ENDCHAR

STARTCHAR b
ENCODING 98
SWIDTH 620 0
DWIDTH 11 0
BBX 10 14 0 0
BITMAP
7000
F000
7000
7000
7000
7700
7B80
71C0
71C0
71C0
71C0
71C0
7380
3F00
ENDCHAR

STARTCHAR c
ENCODING 99
SWIDTH 520 0
DWIDTH 10 0
BBX 8 9 1 0
BITMAP
3E
73
E3
E0
E0
E0
E1
73
3E
ENDCHAR

STARTCHAR d
ENCODING 100
SWIDTH 620 0
DWIDTH 12 0
BBX 11 14 0 0
BITMAP
01C0
03C0
01C0
01C0
01C0
3DC0
7FC0
F3C0
E1C0
E1C0
E1C0
F1C0
7BC0
3DE0
ENDCHAR

STARTCHAR e
ENCODING 101
SWIDTH 560 0
DWIDTH 10 0
BBX 9 9 0 0
BITMAP
1F00
7380
E380
E700
FC00
E000
F080
7F00
3E00
ENDCHAR

STARTCHAR f
ENCODING 102
SWIDTH 360 0
DWIDTH 7 0
BBX 6 14 0 0
BITMAP
3C
7C
70
70
70
FC
70
70
70
70
70
70
70
F8
ENDCHAR

STARTCHAR g
ENCODING 103
SWIDTH 600 0
DWIDTH 10 0
BBX 9 13 0 -4
BITMAP
3F80
7700
E380
E380
E380
E380
E380
7700
3E00
0300
6180
FF80
7F00
ENDCHAR

STARTCHAR h
ENCODING 104
SWIDTH 620 0
DWIDTH 12 0
BBX 11 14 0 0
BITMAP
7000
F000
7000
7000
7000
7780
7BC0
71C0
71C0
71C0
71C0
71C0
71C0
FBE0
ENDCHAR

STARTCHAR i
ENCODING 105
SWIDTH 300 0
DWIDTH 6 0
BBX 5 13 0 0
BITMAP
60
F0
60
00
70
F0
70
70
70
70
70
70
F8
ENDCHAR

STARTCHAR j
ENCODING 106
SWIDTH 300 0
DWIDTH 6 0
BBX 5 17 -1 -4
BITMAP
30
78
30
00
38
78
38
38
38
38
38
38
38
38
B8
F8
F0
ENDCHAR

STARTCHAR k
ENCODING 107
SWIDTH 600 0
DWIDTH 11 0
BBX 10 14 0 0
BITMAP
7000
F000
7000
7000
7000
7380
7300
7600
7E00
7F00
7700
7380
73C0
FBC0
ENDCHAR

STARTCHAR l
ENCODING 108
SWIDTH 300 0
DWIDTH 6 0
BBX 5 14 0 0
BITMAP
70
F0
70
70
70
70
70
70
70
70
70
70
70
F8
ENDCHAR

STARTCHAR m
ENCODING 109
SWIDTH 920 0
DWIDTH 18 0
BBX 17 9 0 0
BITMAP
77BC00
FBEE00
71C700
71C700
71C700
71C700
71C700
71C700
FBEF80
ENDCHAR

STARTCHAR n
ENCODING 110
SWIDTH 620 0
DWIDTH 12 0
BBX 11 9 0 0
BITMAP
6700
FB80
71C0
71C0
71C0
71C0
71C0
71C0
FBE0
ENDCHAR

STARTCHAR o
ENCODING 111
SWIDTH 620 0
DWIDTH 11 0
BBX 10 9 0 0
BITMAP
3F00
7380
E1C0
E1C0
E1C0
E1C0
E1C0
7380
3F00
ENDCHAR

STARTCHAR p
ENCODING 112
SWIDTH 640 0
DWIDTH 12 0
BBX 11 13 0 -4
BITMAP
7780
FBC0
71E0
70E0
70E0
70E0
71E0
77C0
7380
7000
7000
7000
F800
ENDCHAR

STARTCHAR q
ENCODING 113
SWIDTH 620 0
DWIDTH 12 0
BBX 11 13 0 -4
BITMAP
3F40
73C0
E1C0
E1C0
E1C0
E1C0
F3C0
7FC0
3DC0
01C0
01C0
01C0
03E0
ENDCHAR

STARTCHAR r
ENCODING 114
SWIDTH 440 0
DWIDTH 8 0
BBX 7 9 0 0
BITMAP
6E
F6
70
70
70
70
70
70
F8
ENDCHAR

STARTCHAR s
ENCODING 115
SWIDTH 500 0
DWIDTH 8 0
BBX 8 9 -1 0
BITMAP
3E
73
71
7C
3E
0F
C7
E7
7E
ENDCHAR

STARTCHAR t
ENCODING 116
SWIDTH 380 0
DWIDTH 7 0
BBX 6 12 0 0
BITMAP
30
30
70
FC
FC
70
70
70
70
70
7C
3C
ENDCHAR

STARTCHAR u
ENCODING 117
SWIDTH 620 0
DWIDTH 12 0
BBX 11 9 0 0
BITMAP
71C0
F3C0
71C0
71C0
71C0
71C0
73C0
3FC0
1EE0
ENDCHAR

STARTCHAR v
ENCODING 118
SWIDTH 540 0
DWIDTH 11 0
BBX 10 9 0 0
BITMAP
FBC0
F180
7100
7B00
3B00
3A00
3E00
1E00
1C00
ENDCHAR

STARTCHAR w
ENCODING 119
SWIDTH 800 0
DWIDTH 15 0
BBX 14 9 0 0
BITMAP
F79C
630C
7388
7398
77D8
37D0
3CF0
3CF0
1860
ENDCHAR

STARTCHAR x
ENCODING 120
SWIDTH 560 0
DWIDTH 11 0
BBX 10 9 0 0
BITMAP
FBC0
7180
3B00
1E00
0E00
1F00
3380
61C0
F3C0
ENDCHAR

STARTCHAR y
ENCODING 121
SWIDTH 540 0
DWIDTH 11 0
BBX 10 13 0 -4
BITMAP
F3C0
7180
7180
7180
7180
3B80
3B00
1F00
1F00
0600
0C00
7C00
3800
ENDCHAR

STARTCHAR z
ENCODING 122
SWIDTH 500 0
DWIDTH 9 0
BBX 8 9 0 0
BITMAP
FF
CF
8E
1C
38
70
F1
E3
FF
ENDCHAR

STARTCHAR braceleft
ENCODING 123
SWIDTH 340 0
DWIDTH 6 0
BBX 5 18 0 -4
BITMAP
38
70
70
70
70
70
70
70
E0
70
70
70
70
70
70
70
70
38
ENDCHAR

STARTCHAR bar
ENCODING 124
SWIDTH 660 0
DWIDTH 12 0
BBX 1 14 5 0
BITMAP
80
80
80
80
80
80
80
80
80
80
80
80
80
80
ENDCHAR

STARTCHAR braceright
ENCODING 125
SWIDTH 340 0
DWIDTH 6 0
BBX 5 18 0 -4
BITMAP
E0
70
70
70
70
70
70
70
38
70
70
70
70
70
70
70
70
E0
ENDCHAR

STARTCHAR asciitilde
ENCODING 126
SWIDTH 660 0
DWIDTH 12 0
BBX 11 4 0 3
BITMAP
3840
7CE0
E7C0
4380
ENDCHAR

STARTCHAR space
ENCODING 160
SWIDTH 340 0
DWIDTH 6 0
BBX 1 1 0 0
BITMAP
00
ENDCHAR

STARTCHAR exclamdown
ENCODING 161
SWIDTH 360 0
DWIDTH 7 0
BBX 4 14 1 -5
BITMAP
60
F0
60
00
40
E0
E0
E0
E0
E0
E0
E0
E0
E0
ENDCHAR

STARTCHAR cent
ENCODING 162
SWIDTH 680 0
DWIDTH 10 0
BBX 9 14 0 0
BITMAP
0C00
0C00
0C00
3F00
7180
E180
E000
E000
E000
F180
7F00
1E00
0C00
0C00
ENDCHAR

STARTCHAR sterling
ENCODING 163
SWIDTH 680 0
DWIDTH 13 0
BBX 12 14 0 0
BITMAP
0FC0
1CE0
3860
3860
3800
3800
FF80
FF80
3800
3800
3810
3FF0
7FE0
E7C0
ENDCHAR

STARTCHAR EuroSign
ENCODING 164
SWIDTH 500 0
DWIDTH 9 0
BBX 9 12 -1 0
BITMAP
0F80
3980
3080
7000
FF00
7000
FF00
7000
7000
3080
3900
1E00
ENDCHAR

STARTCHAR yen
ENCODING 165
SWIDTH 760 0
DWIDTH 13 0
BBX 13 14 0 0
BITMAP
F878
7030
7860
3860
3CC0
1D80
0F80
3FE0
0700
0700
3FE0
0700
0700
0F80
ENDCHAR

STARTCHAR Scaron
ENCODING 166
SWIDTH 680 0
DWIDTH 13 0
BBX 11 18 1 0
BITMAP
1980
0F00
0600
0000
1F80
7FC0
F0C0
E040
E000
F800
7F00
3FC0
07E0
00E0
C0E0
E1E0
FFC0
3F80
ENDCHAR

STARTCHAR section
ENCODING 167
SWIDTH 600 0
DWIDTH 11 0
BBX 10 18 0 -4
BITMAP
0F00
3FC0
78C0
7040
7C00
3F00
7F80
E7C0
E1C0
F8C0
7EC0
3F80
0F80
03C0
41C0
E380
7F00
1C00
ENDCHAR

STARTCHAR scaron
ENCODING 168
SWIDTH 500 0
DWIDTH 8 0
BBX 8 13 -1 0
BITMAP
66
3C
18
00
3E
73
71
7C
3E
0F
C7
E7
7E
ENDCHAR

STARTCHAR copyright
ENCODING 169
SWIDTH 840 0
DWIDTH 16 0
BBX 14 14 0 0
BITMAP
0FC0
3870
6018
4788
CCCC
9844
9804
9804
9804
CC4C
4788
6018
3870
0FC0
ENDCHAR

STARTCHAR ordfeminine
ENCODING 170
SWIDTH 440 0
DWIDTH 8 0
BBX 6 8 1 6
BITMAP
70
98
78
D8
D8
6C
00
FC
ENDCHAR

STARTCHAR guillemotleft
ENCODING 171
SWIDTH 380 0
DWIDTH 8 0
BBX 7 7 0 2
BITMAP
12
36
6C
FC
6C
36
12
ENDCHAR

STARTCHAR logicalnot
ENCODING 172
SWIDTH 660 0
DWIDTH 12 0
BBX 10 6 1 2
BITMAP
FFC0
FFC0
00C0
00C0
00C0
00C0
ENDCHAR

STARTCHAR hyphen
ENCODING 173
SWIDTH 340 0
DWIDTH 6 0
BBX 5 2 0 4
BITMAP
F8
F8
ENDCHAR

STARTCHAR registered
ENCODING 174
SWIDTH 840 0
DWIDTH 16 0
BBX 14 14 0 0
BITMAP
0FC0
3870
6018
5F88
CCCC
88C4
8984
8F04
8D84
CCCC
5E68
6018
3870
0FC0
ENDCHAR

STARTCHAR macron
ENCODING 175
SWIDTH 440 0
DWIDTH 8 0
BBX 5 2 1 11
BITMAP
F8
F8
ENDCHAR

STARTCHAR degree
ENCODING 176
SWIDTH 400 0
DWIDTH 7 0
BBX 6 6 0 8
BITMAP
78
CC
84
84
CC
78
ENDCHAR

STARTCHAR plusminus
ENCODING 177
SWIDTH 660 0
DWIDTH 12 0
BBX 10 11 1 0
BITMAP
0C00
0C00
0C00
FFC0
FFC0
0C00
0C00
0C00
0000
FFC0
FFC0
ENDCHAR

STARTCHAR twosuperior
ENCODING 178
SWIDTH 408 0
DWIDTH 7 0
BBX 5 8 1 6
BITMAP
70
D8
18
18
30
60
C8
F8
ENDCHAR

STARTCHAR threesuperior
ENCODING 179
SWIDTH 408 0
DWIDTH 7 0
BBX 6 8 0 6
BITMAP
38
6C
0C
38
0C
0C
CC
78
ENDCHAR

STARTCHAR Zcaron
ENCODING 180
SWIDTH 620 0
DWIDTH 11 0
BBX 10 18 0 0
BITMAP
3300
1E00
0C00
0000
FFC0
FFC0
8380
0780
0700
0F00
1E00
1C00
3C00
7800
7000
F040
FFC0
FFC0
ENDCHAR

STARTCHAR mu
ENCODING 181
SWIDTH 620 0
DWIDTH 12 0
BBX 11 13 0 -4
BITMAP
71C0
F3C0
71C0
71C0
71C0
71C0
73C0
7FC0
7EE0
6000
7000
7000
6000
ENDCHAR

STARTCHAR paragraph
ENCODING 182
SWIDTH 780 0
DWIDTH 15 0
BBX 13 18 0 -4
BITMAP
3FF8
7FF0
F1B0
E1B0
E1B0
E1B0
F1B0
79B0
3FB0
0FB0
01B0
01B0
01B0
01B0
01B0
01B0
01B0
01B0
ENDCHAR

STARTCHAR periodcentered
ENCODING 183
SWIDTH 340 0
DWIDTH 6 0
BBX 4 3 1 4
BITMAP
60
F0
60
ENDCHAR

STARTCHAR zcaron
ENCODING 184
SWIDTH 500 0
DWIDTH 9 0
BBX 8 13 0 0
BITMAP
66
3C
18
00
FF
CF
8E
1C
38
70
F1
E3
FF
ENDCHAR

STARTCHAR onesuperior
ENCODING 185
SWIDTH 408 0
DWIDTH 7 0
BBX 4 8 1 6
BITMAP
60
E0
60
60
60
60
60
F0
ENDCHAR

STARTCHAR ordmasculine
ENCODING 186
SWIDTH 440 0
DWIDTH 8 0
BBX 6 8 1 6
BITMAP
78
CC
CC
CC
CC
78
00
FC
ENDCHAR

STARTCHAR guillemotright
ENCODING 187
SWIDTH 380 0
DWIDTH 8 0
BBX 7 7 0 2
BITMAP
90
D8
6C
7E
6C
D8
90
ENDCHAR

STARTCHAR Ligature_OE
ENCODING 188
SWIDTH 1200 0
DWIDTH 23 0
BBX 20 14 0 0
BITMAP
0FDFF0
3FFFF0
3C7810
703800
703800
E03840
E03FC0
E03FC0
E03840
703800
703800
3C7810
3FFFF0
0FDFF0
ENDCHAR

STARTCHAR Ligature_oe
ENCODING 189
SWIDTH 960 0
DWIDTH 18 0
BBX 16 9 1 0
BITMAP
3F7E
73E7
E1C7
E1CE
E1F8
E1C0
F3E1
7FFE
3E7C
ENDCHAR

STARTCHAR Ydiaeresis
ENCODING 190
SWIDTH 740 0
DWIDTH 14 0
BBX 13 17 0 0
BITMAP
0CC0
0CC0
0000
FC78
7830
3860
3C60
1CC0
1E80
0F80
0700
0700
0700
0700
0700
0700
0F80
ENDCHAR

STARTCHAR questiondown
ENCODING 191
SWIDTH 540 0
DWIDTH 10 0
BBX 9 14 0 -5
BITMAP
0C00
1E00
0C00
0000
0C00
0C00
1C00
3800
7000
E000
E300
E380
7F80
3F00
ENDCHAR

STARTCHAR Agrave
ENCODING 192
SWIDTH 740 0
DWIDTH 14 0
BBX 13 18 0 0
BITMAP
3C00
0E00
0300
0000
0700
0700
0F80
0F80
1DC0
19C0
19C0
30E0
3FE0
3FF0
7070
6070
E078
F0F8
ENDCHAR

STARTCHAR Aacute
ENCODING 193
SWIDTH 740 0
DWIDTH 14 0
BBX 13 18 0 0
BITMAP
01E0
0380
0600
0000
0700
0700
0F80
0F80
1DC0
19C0
19C0
30E0
3FE0
3FF0
7070
6070
E078
F0F8
ENDCHAR

STARTCHAR Acircumflex
ENCODING 194
SWIDTH 740 0
DWIDTH 14 0
BBX 13 18 0 0
BITMAP
0700
0D80
18C0
0000
0700
0700
0F80
0F80
1DC0
19C0
19C0
30E0
3FE0
3FF0
7070
6070
E078
F0F8
ENDCHAR

STARTCHAR Atilde
ENCODING 195
SWIDTH 740 0
DWIDTH 14 0
BBX 13 18 0 0
BITMAP
0E40
1FC0
1380
0000
0700
0700
0F80
0F80
1DC0
19C0
19C0
30E0
3FE0
3FF0
7070
6070
E078
F0F8
ENDCHAR

STARTCHAR Adieresis
ENCODING 196
SWIDTH 740 0
DWIDTH 14 0
BBX 13 17 0 0
BITMAP
0CC0
0CC0
0000
0700
0700
0F80
0F80
1DC0
19C0
19C0
30E0
3FE0
3FF0
7070
6070
E078
F0F8
ENDCHAR

STARTCHAR Aring
ENCODING 197
SWIDTH 740 0
DWIDTH 14 0
BBX 13 18 0 0
BITMAP
0700
0D80
0D80
0700
0700
0700
0F80
0F80
1DC0
19C0
19C0
30E0
3FE0
3FF0
7070
6070
E078
F0F8
ENDCHAR

STARTCHAR AE
ENCODING 198
SWIDTH 1020 0
DWIDTH 19 0
BBX 17 14 1 0
BITMAP
03FF00
07FF00
07E100
0EE000
0CE000
0CE200
18FE00
1FFE00
3FE200
30E000
70E000
60E080
E0FF80
F1FF80
ENDCHAR

STARTCHAR Ccedilla
ENCODING 199
SWIDTH 760 0
DWIDTH 14 0
BBX 13 18 0 -4
BITMAP
0FE0
3FF0
3C30
7010
7000
E000
E000
E000
E000
7000
7008
3C38
3FF0
0FC0
0600
0300
0300
0E00
ENDCHAR

STARTCHAR Egrave
ENCODING 200
SWIDTH 660 0
DWIDTH 12 0
BBX 11 18 0 0
BITMAP
3C00
0E00
0300
0000
FFE0
7FE0
7020
7000
7000
7040
7FC0
7FC0
7040
7000
7000
7020
7FE0
FFC0
ENDCHAR

STARTCHAR Eacute
ENCODING 201
SWIDTH 660 0
DWIDTH 12 0
BBX 11 18 0 0
BITMAP
03C0
0700
0C00
0000
FFE0
7FE0
7020
7000
7000
7040
7FC0
7FC0
7040
7000
7000
7020
7FE0
FFC0
ENDCHAR

STARTCHAR Ecircumflex
ENCODING 202
SWIDTH 660 0
DWIDTH 12 0
BBX 11 18 0 0
BITMAP
0600
0F00
1980
0000
FFE0
7FE0
7020
7000
7000
7040
7FC0
7FC0
7040
7000
7000
7020
7FE0
FFC0
ENDCHAR

STARTCHAR Edieresis
ENCODING 203
SWIDTH 660 0
DWIDTH 12 0
BBX 11 17 0 0
BITMAP
1980
1980
0000
FFE0
7FE0
7020
7000
7000
7040
7FC0
7FC0
7040
7000
7000
7020
7FE0
FFC0
ENDCHAR

STARTCHAR Igrave
ENCODING 204
SWIDTH 340 0
DWIDTH 6 0
BBX 6 18 -1 0
BITMAP
F0
38
0C
00
7C
38
38
38
38
38
38
38
38
38
38
38
38
7C
ENDCHAR

STARTCHAR Iacute
ENCODING 205
SWIDTH 340 0
DWIDTH 6 0
BBX 7 18 0 0
BITMAP
1E
38
60
00
F8
70
70
70
70
70
70
70
70
70
70
70
70
F8
ENDCHAR

STARTCHAR Icircumflex
ENCODING 206
SWIDTH 340 0
DWIDTH 6 0
BBX 5 18 0 0
BITMAP
20
70
D8
00
F8
70
70
70
70
70
70
70
70
70
70
70
70
F8
ENDCHAR

STARTCHAR Idieresis
ENCODING 207
SWIDTH 340 0
DWIDTH 6 0
BBX 5 17 0 0
BITMAP
D8
D8
00
F8
70
70
70
70
70
70
70
70
70
70
70
70
F8
ENDCHAR

STARTCHAR Eth
ENCODING 208
SWIDTH 820 0
DWIDTH 15 0
BBX 14 14 0 0
BITMAP
FFC0
7FF0
7078
7038
703C
701C
FC1C
701C
701C
703C
7038
7078
7FF0
FFC0
ENDCHAR

STARTCHAR Ntilde
ENCODING 209
SWIDTH 760 0
DWIDTH 14 0
BBX 13 18 0 0
BITMAP
0720
0FE0
09C0
0000
F078
7830
7C30
7C30
7E30
6F30
6730
63B0
63F0
61F0
60F0
60F0
6070
F070
ENDCHAR

STARTCHAR Ograve
ENCODING 210
SWIDTH 860 0
DWIDTH 16 0
BBX 15 18 0 0
BITMAP
1E00
0700
0180
0000
0FE0
3FF8
3C78
701C
701C
E00E
E00E
E00E
E00E
701C
701C
3C78
3FF8
0FE0
ENDCHAR

STARTCHAR Oacute
ENCODING 211
SWIDTH 860 0
DWIDTH 16 0
BBX 15 18 0 0
BITMAP
0078
00E0
0180
0000
0FE0
3FF8
3C78
701C
701C
E00E
E00E
E00E
E00E
701C
701C
3C78
3FF8
0FE0
ENDCHAR

STARTCHAR Ocircumflex
ENCODING 212
SWIDTH 860 0
DWIDTH 16 0
BBX 15 18 0 0
BITMAP
0100
0380
06C0
0000
0FE0
3FF8
3C78
701C
701C
E00E
E00E
E00E
E00E
701C
701C
3C78
3FF8
0FE0
ENDCHAR

STARTCHAR Otilde
ENCODING 213
SWIDTH 860 0
DWIDTH 16 0
BBX 15 18 0 0
BITMAP
0720
0FE0
09C0
0000
0FE0
3FF8
3C78
701C
701C
E00E
E00E
E00E
E00E
701C
701C
3C78
3FF8
0FE0
ENDCHAR

STARTCHAR Odieresis
ENCODING 214
SWIDTH 860 0
DWIDTH 16 0
BBX 15 17 0 0
BITMAP
0C60
0C60
0000
0FE0
3FF8
3C78
701C
701C
E00E
E00E
E00E
E00E
701C
701C
3C78
3FF8
0FE0
ENDCHAR

STARTCHAR multiply
ENCODING 215
SWIDTH 660 0
DWIDTH 12 0
BBX 9 10 1 0
BITMAP
8080
C180
6300
3600
1C00
1C00
3600
6300
C180
8080
ENDCHAR

STARTCHAR Oslash
ENCODING 216
SWIDTH 860 0
DWIDTH 16 0
BBX 15 14 0 0
BITMAP
0FEC
3FFC
3C78
707C
70DC
E18E
E30E
E30E
E60E
7C1C
781C
3C78
7FF8
6FE0
ENDCHAR

STARTCHAR Ugrave
ENCODING 217
SWIDTH 760 0
DWIDTH 14 0
BBX 13 18 0 0
BITMAP
1E00
0700
0180
0000
F878
7030
7030
7030
7030
7030
7030
7030
7030
7030
7030
3860
3FE0
1FC0
ENDCHAR

STARTCHAR Uacute
ENCODING 218
SWIDTH 760 0
DWIDTH 14 0
BBX 13 18 0 0
BITMAP
00F0
01C0
0300
0000
F878
7030
7030
7030
7030
7030
7030
7030
7030
7030
7030
3860
3FE0
1FC0
ENDCHAR

STARTCHAR Ucircumflex
ENCODING 219
SWIDTH 760 0
DWIDTH 14 0
BBX 13 18 0 0
BITMAP
0100
0380
06C0
0000
F878
7030
7030
7030
7030
7030
7030
7030
7030
7030
7030
3860
3FE0
1FC0
ENDCHAR

STARTCHAR Udieresis
ENCODING 220
SWIDTH 760 0
DWIDTH 14 0
BBX 13 17 0 0
BITMAP
0CC0
0CC0
0000
F878
7030
7030
7030
7030
7030
7030
7030
7030
7030
7030
3860
3FE0
1FC0
ENDCHAR

STARTCHAR Yacute
ENCODING 221
SWIDTH 740 0
DWIDTH 14 0
BBX 13 18 0 0
BITMAP
01E0
0380
0600
0000
FC78
7830
3860
3C60
1CC0
1E80
0F80
0700
0700
0700
0700
0700
0700
0F80
ENDCHAR

STARTCHAR Thorn
ENCODING 222
SWIDTH 680 0
DWIDTH 13 0
BBX 12 14 0 0
BITMAP
F800
7000
7000
7FC0
7FE0
7070
7070
70F0
71E0
7FC0
7F00
7000
7000
F800
ENDCHAR

STARTCHAR germandbls
ENCODING 223
SWIDTH 660 0
DWIDTH 12 0
BBX 11 14 0 0
BITMAP
0E00
3F80
7BC0
71C0
71C0
7180
7300
77C0
71E0
70E0
74E0
74E0
77C0
F3C0
ENDCHAR

STARTCHAR agrave
ENCODING 224
SWIDTH 580 0
DWIDTH 11 0
BBX 10 13 0 0
BITMAP
7800
1C00
0600
0000
7F00
E780
C380
1F80
7380
E380
E780
FB80
73C0
ENDCHAR

STARTCHAR aacute
ENCODING 225
SWIDTH 580 0
DWIDTH 11 0
BBX 10 13 0 0
BITMAP
0780
0E00
1800
0000
7F00
E780
C380
1F80
7380
E380
E780
FB80
73C0
ENDCHAR

STARTCHAR acircumflex
ENCODING 226
SWIDTH 580 0
DWIDTH 11 0
BBX 10 14 0 0
BITMAP
0800
1C00
3600
6300
0000
7F00
E780
C380
1F80
7380
E380
E780
FB80
73C0
ENDCHAR

STARTCHAR atilde
ENCODING 227
SWIDTH 580 0
DWIDTH 11 0
BBX 10 13 0 0
BITMAP
3900
7F00
4E00
0000
7F00
E780
C380
1F80
7380
E380
E780
FB80
73C0
ENDCHAR

STARTCHAR adieresis
ENCODING 228
SWIDTH 580 0
DWIDTH 11 0
BBX 10 12 0 0
BITMAP
3300
3300
0000
7F00
E780
C380
1F80
7380
E380
E780
FB80
73C0
ENDCHAR

STARTCHAR aring
ENCODING 229
SWIDTH 580 0
DWIDTH 11 0
BBX 10 14 0 0
BITMAP
1C00
3600
3600
1C00
0000
7F00
E780
C380
1F80
7380
E380
E780
FB80
73C0
ENDCHAR

STARTCHAR ae
ENCODING 230
SWIDTH 880 0
DWIDTH 17 0
BBX 15 9 1 0
BITMAP
7EFC
E7CE
C38E
1F9C
73F0
E380
E7C2
FFFC
7CF8
ENDCHAR

STARTCHAR ccedilla
ENCODING 231
SWIDTH 520 0
DWIDTH 10 0
BBX 9 13 0 -4
BITMAP
3E00
7300
E300
E000
E000
E000
E080
7300
3E00
1800
0C00
0C00
3800
ENDCHAR

STARTCHAR egrave
ENCODING 232
SWIDTH 560 0
DWIDTH 10 0
BBX 9 13 0 0
BITMAP
7800
1C00
0600
0000
1F00
7380
E380
E700
FC00
E000
F080
7F00
3E00
ENDCHAR

STARTCHAR eacute
ENCODING 233
SWIDTH 560 0
DWIDTH 10 0
BBX 9 13 0 0
BITMAP
0780
0E00
1800
0000
1F00
7380
E380
E700
FC00
E000
F080
7F00
3E00
ENDCHAR

STARTCHAR ecircumflex
ENCODING 234
SWIDTH 560 0
DWIDTH 10 0
BBX 9 14 0 0
BITMAP
0800
1C00
3600
6300
0000
1F00
7380
E380
E700
FC00
E000
F080
7F00
3E00
ENDCHAR

STARTCHAR edieresis
ENCODING 235
SWIDTH 560 0
DWIDTH 10 0
BBX 9 12 0 0
BITMAP
6300
6300
0000
1F00
7380
E380
E700
FC00
E000
F080
7F00
3E00
ENDCHAR

STARTCHAR igrave
ENCODING 236
SWIDTH 300 0
DWIDTH 6 0
BBX 6 13 -1 0
BITMAP
F0
38
0C
00
38
78
38
38
38
38
38
38
7C
ENDCHAR

STARTCHAR iacute
ENCODING 237
SWIDTH 300 0
DWIDTH 6 0
BBX 6 13 0 0
BITMAP
3C
70
C0
00
70
F0
70
70
70
70
70
70
F8
ENDCHAR

STARTCHAR icircumflex
ENCODING 238
SWIDTH 300 0
DWIDTH 6 0
BBX 7 14 -1 0
BITMAP
10
38
6C
C6
00
38
78
38
38
38
38
38
38
7C
ENDCHAR

STARTCHAR idieresis
ENCODING 239
SWIDTH 300 0
DWIDTH 6 0
BBX 6 12 0 0
BITMAP
CC
CC
00
70
F0
70
70
70
70
70
70
F8
ENDCHAR

STARTCHAR eth
ENCODING 240
SWIDTH 660 0
DWIDTH 11 0
BBX 10 14 0 0
BITMAP
0300
F600
1E00
3700
0380
3F80
73C0
E1C0
E1C0
E1C0
E1C0
E1C0
7380
3F00
ENDCHAR

STARTCHAR ntilde
ENCODING 241
SWIDTH 620 0
DWIDTH 12 0
BBX 11 13 0 0
BITMAP
1C80
3F80
2700
0000
6700
FB80
71C0
71C0
71C0
71C0
71C0
71C0
FBE0
ENDCHAR

STARTCHAR ograve
ENCODING 242
SWIDTH 620 0
DWIDTH 11 0
BBX 10 13 0 0
BITMAP
7800
1C00
0600
0000
3F00
7380
E1C0
E1C0
E1C0
E1C0
E1C0
7380
3F00
ENDCHAR

STARTCHAR oacute
ENCODING 243
SWIDTH 620 0
DWIDTH 11 0
BBX 10 13 0 0
BITMAP
03C0
0700
0C00
0000
3F00
7380
E1C0
E1C0
E1C0
E1C0
E1C0
7380
3F00
ENDCHAR

STARTCHAR ocircumflex
ENCODING 244
SWIDTH 620 0
DWIDTH 11 0
BBX 10 14 0 0
BITMAP
0800
1C00
3600
6300
0000
3F00
7380
E1C0
E1C0
E1C0
E1C0
E1C0
7380
3F00
ENDCHAR

STARTCHAR otilde
ENCODING 245
SWIDTH 620 0
DWIDTH 11 0
BBX 10 13 0 0
BITMAP
1C80
3F80
2700
0000
3F00
7380
E1C0
E1C0
E1C0
E1C0
E1C0
7380
3F00
ENDCHAR

STARTCHAR odieresis
ENCODING 246
SWIDTH 620 0
DWIDTH 11 0
BBX 10 12 0 0
BITMAP
3300
3300
0000
3F00
7380
E1C0
E1C0
E1C0
E1C0
E1C0
7380
3F00
ENDCHAR

STARTCHAR divide
ENCODING 247
SWIDTH 660 0
DWIDTH 12 0
BBX 10 10 1 0
BITMAP
0C00
0C00
0000
0000
FFC0
FFC0
0000
0000
0C00
0C00
ENDCHAR

STARTCHAR oslash
ENCODING 248
SWIDTH 620 0
DWIDTH 11 0
BBX 10 11 0 -1
BITMAP
0080
3F00
7380
E7C0
E5C0
EDC0
E9C0
F9C0
7380
3F00
4000
ENDCHAR

STARTCHAR ugrave
ENCODING 249
SWIDTH 620 0
DWIDTH 12 0
BBX 11 13 0 0
BITMAP
3C00
0E00
0300
0000
71C0
F3C0
71C0
71C0
71C0
71C0
73C0
3FC0
1EE0
ENDCHAR

STARTCHAR uacute
ENCODING 250
SWIDTH 620 0
DWIDTH 12 0
BBX 11 13 0 0
BITMAP
0780
0E00
1800
0000
71C0
F3C0
71C0
71C0
71C0
71C0
73C0
3FC0
1EE0
ENDCHAR

STARTCHAR ucircumflex
ENCODING 251
SWIDTH 620 0
DWIDTH 12 0
BBX 11 14 0 0
BITMAP
0400
0E00
1B00
3180
0000
71C0
F3C0
71C0
71C0
71C0
71C0
73C0
3FC0
1EE0
ENDCHAR

STARTCHAR udieresis
ENCODING 252
SWIDTH 620 0
DWIDTH 12 0
BBX 11 12 0 0
BITMAP
1980
1980
0000
71C0
F3C0
71C0
71C0
71C0
71C0
73C0
3FC0
1EE0
ENDCHAR

STARTCHAR yacute
ENCODING 253
SWIDTH 540 0
DWIDTH 11 0
BBX 10 17 0 -4
BITMAP
0780
0E00
1800
0000
F3C0
7180
7180
7180
7180
3B80
3B00
1F00
1F00
0600
0C00
7C00
3800
ENDCHAR

STARTCHAR thorn
ENCODING 254
SWIDTH 640 0
DWIDTH 12 0
BBX 11 18 0 -4
BITMAP
7000
F000
7000
7000
7000
7780
7BC0
71E0
70E0
70E0
70E0
71E0
77C0
7380
7000
7000
7000
F800
ENDCHAR

STARTCHAR ydieresis
ENCODING 255
SWIDTH 540 0
DWIDTH 11 0
BBX 10 16 0 -4
BITMAP
3300
3300
0000
F3C0
7180
7180
7180
7180
3B80
3B00
1F00
1F00
0600
0C00
7C00
3800
ENDCHAR
ENDFONT
